<svg xmlns="http://www.w3.org/2000/svg" viewBox="0 23.049999237060547 225.14999389648438 47.10000228881836" data-asc="1.2" width="225.14999389648438" height="47.10000228881836"><defs/><g fill="#000000"><g transform="translate(0, 0)"><path d="M9.80 60.30Q6.45 60.30 4.28 59.15Q2.10 58 1.05 56.20Q0 54.40 0 52.50Q0 50.65 0.90 48.98Q1.80 47.30 3.48 46.20Q5.15 45.10 7.45 45.10Q7.40 45.55 7.40 45.92Q7.40 46.30 7.40 46.30Q7.40 49.65 8.05 51.58Q8.70 53.50 9.70 54.33Q10.70 55.15 11.75 55.15Q13.35 55.15 14.60 53.88Q15.85 52.60 15.85 50.90Q15.85 49 14.23 47.55Q12.60 46.10 10.10 44.35Q8.70 43.30 7.13 41.97Q5.55 40.65 4.45 38.83Q3.35 37 3.35 34.50Q3.35 31.90 4.58 29.90Q5.80 27.90 7.83 26.52Q9.85 25.15 12.28 24.42Q14.70 23.70 17.10 23.70Q20.05 23.70 21.95 24.65Q23.85 25.60 24.80 27.10Q25.75 28.60 25.75 30.20Q25.75 31.70 24.93 33.08Q24.10 34.45 22.50 35.30Q20.90 36.15 18.55 36.15Q18.70 35.45 18.75 34.88Q18.80 34.30 18.80 33.85Q18.80 31.35 17.72 30.27Q16.65 29.20 15.35 29.20Q14.10 29.20 12.95 30.13Q11.80 31.05 11.80 33.10Q11.80 34.85 12.73 36.10Q13.65 37.35 15.13 38.30Q16.60 39.25 18.25 40.15Q19.95 41.05 21.52 42.13Q23.10 43.20 24.15 44.65Q25.20 46.10 25.20 48.30Q25.20 50.60 23.95 52.77Q22.70 54.95 20.55 56.63Q18.40 58.30 15.63 59.30Q12.85 60.30 9.80 60.30ZM35.35 60.20Q32.75 60.20 31.13 58.67Q29.50 57.15 29.50 53.95Q29.50 52.35 29.88 50.58Q30.25 48.80 30.73 47.08Q31.20 45.35 31.55 43.95Q31.90 42.55 31.90 41.70Q31.90 40.85 31.55 40.47Q31.20 40.10 30.70 40.10Q30.20 40.10 29.70 40.42Q29.20 40.75 28.85 41.40L28.45 41.25Q28.55 39.20 29.60 37.75Q30.65 36.30 32.23 35.55Q33.80 34.80 35.40 34.80Q36.70 34.80 37.90 35.33Q39.10 35.85 39.83 36.92Q40.55 38 40.50 39.65Q40.45 40.75 40.10 42.35Q39.75 43.95 39.28 45.77Q38.80 47.60 38.45 49.30Q38.10 51 38.10 52.30Q38.10 53.40 38.42 54.05Q38.75 54.70 39.55 54.70Q40.40 54.70 41.80 53.80Q43.20 52.90 44.60 51.20Q44.30 48.40 44.30 46.25Q44.30 40.75 45.92 38.30Q47.55 35.85 50 35.85Q51.80 35.85 52.45 37.05Q53.10 38.25 53.10 40.25Q53.10 43.20 52.10 45.80Q51.10 48.40 49.75 49.95Q49.85 52.20 50.67 53.45Q51.50 54.70 52.65 54.70Q53.80 54.70 55.03 53.40Q56.25 52.10 57.15 49.40Q58.05 46.70 58.20 42.55Q58.25 39.20 57.75 37.65L57.75 37.40Q58.45 36.25 59.98 35.42Q61.50 34.60 63.05 34.60Q64.15 34.60 65.08 35.22Q66 35.85 66.55 37.52Q67.10 39.20 66.95 42.35Q66.80 46.75 65.50 50.08Q64.20 53.40 62.17 55.65Q60.15 57.90 57.80 59.05Q55.45 60.20 53.15 60.20Q50.55 60.20 48.40 58.77Q46.25 57.35 45.15 54.75Q42.90 57.10 40.53 58.65Q38.15 60.20 35.35 60.20ZM78.65 33.25Q76.65 33.25 75.38 32.02Q74.10 30.80 74.10 28.95Q74.10 26.95 75.60 25.50Q77.10 24.05 79.25 24.05Q81.25 24.05 82.53 25.30Q83.80 26.55 83.80 28.40Q83.80 30.40 82.30 31.82Q80.80 33.25 78.65 33.25M75.15 60.20Q73.20 60.20 71.65 58.83Q70.10 57.45 70.10 54.40Q70.10 52.65 70.58 51.13Q71.05 49.60 71.67 48.15Q72.30 46.70 72.78 45.33Q73.25 43.95 73.25 42.60Q73.25 41.40 72.85 40.88Q72.45 40.35 71.90 40.35Q71.05 40.35 70.25 41.45L69.90 41.25Q70.10 39.25 71.17 37.83Q72.25 36.40 73.83 35.60Q75.40 34.80 76.95 34.80Q78.85 34.80 80.25 36.02Q81.65 37.25 81.65 40Q81.65 41.65 81.17 43.47Q80.70 45.30 80.08 47.10Q79.45 48.90 78.97 50.45Q78.50 52 78.50 53.10Q78.50 54.05 78.88 54.45Q79.25 54.85 79.70 54.85Q80.15 54.85 80.58 54.58Q81 54.30 81.20 53.95L81.55 54.05Q81.55 55.90 80.58 57.27Q79.60 58.65 78.15 59.42Q76.70 60.20 75.15 60.20ZM90.75 70.15Q89.30 70.15 88 69.63Q86.70 69.10 86.20 68.05Q87.40 62.95 88.17 59Q88.95 55.05 89.40 51.95Q89.85 48.85 90.05 46.27Q90.25 43.70 90.30 41.30Q88.60 41.40 87.05 41.63Q85.50 41.85 84.35 42.25L84.25 41.90Q85.70 40.45 87.25 39.47Q88.80 38.50 90.35 37.90L90.35 34.10Q90.35 30.25 91.90 27.82Q93.45 25.40 95.88 24.23Q98.30 23.05 100.90 23.05Q104.35 23.05 106.08 24.70Q107.80 26.35 107.80 28.40Q107.80 29.90 106.88 31.30Q105.95 32.70 104.10 33.63Q102.25 34.55 99.45 34.55Q100.25 33.10 100.67 31.65Q101.10 30.20 101.10 29.10Q101.10 28.25 100.85 27.73Q100.60 27.20 100.15 27.20Q99.20 27.20 98.33 29.57Q97.45 31.95 97.45 35.80L97.45 36.75Q98.90 36.70 100.22 36.80Q101.55 36.90 102.70 37Q102.80 37.35 102.85 37.75Q102.90 38.15 102.90 38.55Q102.90 39.30 102.70 40.05Q102.50 40.80 102.15 41.60Q101.25 41.50 100.10 41.40Q98.95 41.30 97.65 41.25L97.65 42.35Q97.65 45.10 97.42 48.70Q97.20 52.30 96.60 57.25Q96 62.20 94.75 69.05Q93.20 70.15 90.75 70.15ZM112.50 60.20Q110.90 60.20 109.48 59.48Q108.05 58.75 107.18 57.20Q106.30 55.65 106.30 53.25Q106.30 51.95 106.55 49.85Q106.80 47.75 107.23 45.25Q107.65 42.75 108.10 40.25Q107.10 40.30 106.18 40.45Q105.25 40.60 104.35 40.80L104.25 40.45Q105.25 39.25 106.35 38.40Q107.45 37.55 108.65 37Q109.30 33.70 109.75 31.27Q110.20 28.85 110.20 28.40Q110.20 27.55 111.53 27Q112.85 26.45 114.50 26.45Q115.95 26.45 117.23 27Q118.50 27.55 118.95 28.85Q118.65 29.15 118.10 31.07Q117.55 33 116.95 35.75Q117.90 35.80 118.90 35.85Q119.90 35.90 120.95 36Q121.05 36.30 121.10 36.65Q121.15 37 121.15 37.40Q121.15 38.15 120.93 39.02Q120.70 39.90 120.40 40.60Q119.20 40.50 118.15 40.38Q117.10 40.25 116.10 40.20Q115.70 42.35 115.38 44.50Q115.05 46.65 114.88 48.40Q114.70 50.15 114.70 51.15Q114.70 53.25 115.48 53.95Q116.25 54.65 117.35 54.65Q118.35 54.65 119.15 54.25Q119.95 53.85 120.30 53.30L120.80 53.45Q120.50 55.50 119.20 57.02Q117.90 58.55 116.10 59.38Q114.30 60.20 112.50 60.20ZM146.70 60.35Q144.95 60.35 143.68 59.48Q142.40 58.60 141.48 57.20Q140.55 55.80 139.88 54.13Q139.20 52.45 138.60 50.90Q137.70 48.40 136.95 46.52Q136.20 44.65 135.30 43.35Q134.35 47.15 133.78 50.65Q133.20 54.15 133.05 58.45Q132.15 59.30 131.03 59.75Q129.90 60.20 128.75 60.20Q127.00 60.20 125.65 58.98Q124.30 57.75 124.30 54.85Q124.30 52.85 124.90 50.35Q125.50 47.85 126.38 45.20Q127.25 42.55 128.15 40.05Q129.05 37.55 129.65 35.52Q130.25 33.50 130.25 32.30Q130.25 31.05 129.40 31.05Q128.45 31.05 127.10 32.47Q125.75 33.90 124.35 36.45L124.05 36.35Q124.05 33.35 125.35 31Q126.65 28.65 128.88 27.02Q131.10 25.40 134.03 24.55Q136.95 23.70 140.15 23.70Q144.40 23.70 147.05 25.02Q149.70 26.35 150.98 28.42Q152.25 30.50 152.25 32.85Q152.25 35.25 151.03 37.55Q149.80 39.85 147.58 41.38Q145.35 42.90 142.30 43.15Q143.35 43.95 144.10 45.17Q144.85 46.40 145.65 47.95Q146.35 49.35 147.30 50.63Q148.25 51.90 149.90 51.90Q150.75 51.90 151.30 51.48Q151.85 51.05 152.25 50.05L152.55 50.20Q152.80 50.95 152.88 51.65Q152.95 52.35 152.95 52.95Q152.95 56.10 151.20 58.23Q149.45 60.35 146.70 60.35M137.80 38.75Q139.60 38.75 140.93 37.92Q142.25 37.10 142.98 35.88Q143.70 34.65 143.70 33.40Q143.70 31.85 142.53 30.67Q141.35 29.50 138.70 29.50Q138.30 29.50 137.88 29.52Q137.45 29.55 137.05 29.60Q137.10 29.95 137.10 30.27Q137.10 30.60 137.10 30.60Q137.10 32.90 136.93 35.05Q136.75 37.20 136.45 38.65Q136.80 38.70 137.13 38.72Q137.45 38.75 137.80 38.75ZM165.65 33.25Q163.65 33.25 162.38 32.02Q161.10 30.80 161.10 28.95Q161.10 26.95 162.60 25.50Q164.10 24.05 166.25 24.05Q168.25 24.05 169.53 25.30Q170.80 26.55 170.80 28.40Q170.80 30.40 169.30 31.82Q167.80 33.25 165.65 33.25M162.15 60.20Q160.20 60.20 158.65 58.83Q157.10 57.45 157.10 54.40Q157.10 52.65 157.57 51.13Q158.05 49.60 158.68 48.15Q159.30 46.70 159.78 45.33Q160.25 43.95 160.25 42.60Q160.25 41.40 159.85 40.88Q159.45 40.35 158.90 40.35Q158.05 40.35 157.25 41.45L156.90 41.25Q157.10 39.25 158.18 37.83Q159.25 36.40 160.82 35.60Q162.40 34.80 163.95 34.80Q165.85 34.80 167.25 36.02Q168.65 37.25 168.65 40Q168.65 41.65 168.18 43.47Q167.70 45.30 167.07 47.10Q166.45 48.90 165.97 50.45Q165.50 52 165.50 53.10Q165.50 54.05 165.88 54.45Q166.25 54.85 166.70 54.85Q167.15 54.85 167.57 54.58Q168 54.30 168.20 53.95L168.55 54.05Q168.55 55.90 167.57 57.27Q166.60 58.65 165.15 59.42Q163.70 60.20 162.15 60.20ZM179.65 60.20Q177.85 60.20 176.28 58.95Q174.70 57.70 173.72 55.30Q172.75 52.90 172.75 49.50Q172.75 46 173.75 43.25Q174.75 40.50 176.38 38.58Q178 36.65 179.93 35.65Q181.85 34.65 183.70 34.65Q185.75 34.65 187.35 35.92Q188.95 37.20 189.55 39.90Q190 37.40 190.32 35.13Q190.65 32.85 190.65 31.10Q190.65 28.80 190.05 27.75L190.05 27.45Q191.20 26.15 192.57 25.52Q193.95 24.90 195.20 24.90Q196.85 24.90 198 25.92Q199.15 26.95 199.15 28.85Q199.15 29.90 198.80 31.95Q198.45 34 197.95 36.63Q197.45 39.25 196.93 42.02Q196.40 44.80 196.05 47.33Q195.70 49.85 195.70 51.70Q195.70 53.25 196.03 54.17Q196.35 55.10 197.10 55.10Q197.65 55.10 198.22 54.73Q198.80 54.35 199 53.85L199.35 54.10Q199.35 55.75 198.30 57.13Q197.25 58.50 195.65 59.35Q194.05 60.20 192.35 60.20Q190.50 60.20 189.43 59.17Q188.35 58.15 187.90 56.55Q187.45 54.95 187.40 53.25Q185.85 56.85 183.78 58.52Q181.70 60.20 179.65 60.20M183 53.85Q184.30 53.85 185.90 51.50Q187.50 49.15 188.70 44.65L189 43.10Q188.20 41.25 187.28 40.47Q186.35 39.70 185.50 39.70Q184.25 39.70 183.15 41.08Q182.05 42.45 181.38 44.58Q180.70 46.70 180.70 49.05Q180.70 51.30 181.35 52.58Q182 53.85 183 53.85ZM212.35 60.35Q208.70 60.35 206.30 58.88Q203.90 57.40 202.70 54.98Q201.50 52.55 201.50 49.75Q201.50 47.10 202.53 44.42Q203.55 41.75 205.53 39.55Q207.50 37.35 210.32 36Q213.15 34.65 216.70 34.65Q221.10 34.65 223.13 36.63Q225.15 38.60 225.15 41.40Q225.15 43.80 223.88 45.83Q222.60 47.85 220.50 49.08Q218.40 50.30 215.90 50.30Q214.60 50.30 213.25 49.90Q211.90 49.50 210.60 48.65Q210.85 51.75 212.40 53.15Q213.95 54.55 216.10 54.55Q217.60 54.55 219.10 53.98Q220.60 53.40 221.88 52.48Q223.15 51.55 223.85 50.50L224.20 50.75Q224.20 53.35 223.13 55.17Q222.05 57 220.30 58.15Q218.55 59.30 216.47 59.83Q214.40 60.35 212.35 60.35M213.50 46.85Q215.10 46.85 216.10 45.92Q217.10 45 217.60 43.75Q218.10 42.50 218.10 41.55Q218.10 40.40 217.45 39.63Q216.80 38.85 215.65 38.85Q214.75 38.85 213.67 39.50Q212.60 40.15 211.75 41.72Q210.90 43.30 210.65 46.10Q212.25 46.85 213.50 46.85Z"/></g></g></svg>